<?xml version="1.0" encoding="utf-8"?>
<!-- Generator: Adobe Illustrator 15.1.0, SVG Export Plug-In . SVG Version: 6.00 Build 0)  -->
<!DOCTYPE svg PUBLIC "-//W3C//DTD SVG 1.1//EN" "http://www.w3.org/Graphics/SVG/1.1/DTD/svg11.dtd">
<svg version="1.1" id="Ebene_1" xmlns="http://www.w3.org/2000/svg" xmlns:xlink="http://www.w3.org/1999/xlink" x="0px" y="0px"
	 width="50px" height="50px" viewBox="0 0 50 50" enable-background="new 0 0 50 50" xml:space="preserve">
<g id="Xing" transform="translate(-194.8708,-324.33481)">
	<path id="path19359" d="M202.469,334.207c-0.435,0-0.8,0.155-0.984,0.453c-0.19,0.308-0.16,0.703,0.041,1.105l4.875,8.441
		c0.008,0.015,0.008,0.026,0,0.04l-7.661,13.522c-0.201,0.399-0.191,0.798,0,1.107c0.182,0.295,0.506,0.49,0.942,0.49h7.212
		c1.078,0,1.597-0.727,1.966-1.392c0,0,7.493-13.253,7.784-13.768c-0.029-0.048-4.957-8.645-4.957-8.645
		c-0.359-0.641-0.902-1.354-2.008-1.354H202.469z"/>
	<path id="path19375" d="M232.764,324.335c-1.077,0-1.545,0.678-1.931,1.373c0,0-15.535,27.55-16.046,28.457
		c0.027,0.047,10.246,18.797,10.246,18.797c0.358,0.639,0.91,1.374,2.015,1.374h7.204c0.435,0,0.774-0.164,0.957-0.459
		c0.192-0.311,0.187-0.716-0.015-1.117l-10.167-18.574c-0.01-0.016-0.01-0.034,0-0.045l15.966-28.23
		c0.2-0.4,0.205-0.806,0.016-1.113c-0.185-0.299-0.525-0.461-0.958-0.461H232.764z"/>
</g>
<g id="Github">
	<path d="M25,0.617c-13.805,0-25,11.193-25,25c0,11.046,7.163,20.417,17.096,23.724c1.25,0.23,1.709-0.544,1.709-1.204
		c0-0.595-0.023-2.565-0.035-4.652c-6.954,1.512-8.422-2.951-8.422-2.951c-1.136-2.89-2.776-3.657-2.776-3.657
		c-2.268-1.552,0.172-1.52,0.172-1.52c2.51,0.177,3.832,2.576,3.832,2.576c2.229,3.822,5.849,2.717,7.275,2.077
		c0.225-1.614,0.872-2.718,1.587-3.342c-5.553-0.632-11.39-2.775-11.39-12.355c0-2.729,0.977-4.959,2.577-6.71
		c-0.26-0.629-1.116-3.171,0.243-6.617c0,0,2.098-0.67,6.876,2.564c1.994-0.555,4.134-0.833,6.257-0.841
		c2.126,0.008,4.265,0.286,6.264,0.841c4.771-3.234,6.868-2.564,6.868-2.564c1.361,3.445,0.505,5.988,0.245,6.617
		c1.603,1.751,2.574,3.981,2.574,6.71c0,9.602-5.849,11.717-11.416,12.334c0.897,0.777,1.696,2.299,1.696,4.63
		c0,3.345-0.029,6.038-0.029,6.86c0,0.666,0.45,1.446,1.716,1.199C42.846,46.028,50,36.66,50,25.617
		C50,11.811,38.807,0.617,25,0.617z M9.363,36.231c-0.055,0.124-0.25,0.161-0.429,0.076c-0.181-0.082-0.283-0.25-0.225-0.375
		c0.054-0.127,0.25-0.163,0.431-0.079C9.323,35.937,9.427,36.107,9.363,36.231z M10.593,37.328
		c-0.119,0.111-0.352,0.061-0.509-0.115c-0.165-0.175-0.195-0.407-0.074-0.521c0.123-0.11,0.349-0.058,0.512,0.117
		C10.686,36.985,10.718,37.217,10.593,37.328z M11.437,38.731c-0.154,0.107-0.403,0.007-0.559-0.214
		c-0.154-0.222-0.154-0.489,0.003-0.597c0.156-0.105,0.402-0.009,0.56,0.211C11.593,38.357,11.593,38.624,11.437,38.731z
		 M12.864,40.358c-0.137,0.152-0.43,0.111-0.643-0.096c-0.219-0.202-0.28-0.487-0.141-0.638c0.138-0.151,0.432-0.109,0.647,0.096
		C12.943,39.92,13.009,40.208,12.864,40.358z M14.708,40.907c-0.061,0.196-0.342,0.285-0.625,0.202
		c-0.283-0.086-0.468-0.315-0.412-0.513c0.061-0.198,0.342-0.29,0.627-0.201C14.581,40.481,14.767,40.709,14.708,40.907z
		 M16.806,41.14c0.007,0.207-0.232,0.377-0.53,0.382c-0.299,0.007-0.541-0.162-0.543-0.364c0-0.208,0.235-0.378,0.533-0.382
		C16.562,40.769,16.806,40.935,16.806,41.14z M18.867,41.061c0.036,0.202-0.171,0.408-0.466,0.463
		c-0.29,0.053-0.558-0.072-0.596-0.272c-0.036-0.205,0.175-0.413,0.466-0.466C18.565,40.736,18.83,40.856,18.867,41.061z"/>
</g>
<g id="LinkedIn">
	<path d="M46.298,0H3.689C1.654,0,0,1.614,0,3.604v42.788C0,48.384,1.654,50,3.689,50h42.609C48.339,50,50,48.384,50,46.393V3.604
		C50,1.614,48.339,0,46.298,0"/>
	<path fill="#FFFFFF" d="M11.123,6.883c2.372,0,4.297,1.928,4.297,4.3c0,2.373-1.926,4.301-4.297,4.301
		c-2.376,0-4.3-1.928-4.3-4.301C6.822,8.811,8.746,6.883,11.123,6.883L11.123,6.883z M7.414,18.745h7.416v23.862H7.414V18.745z
		 M19.481,18.745v23.862h7.411V30.802c0-3.112,0.59-6.126,4.45-6.126c3.803,0,3.855,3.559,3.855,6.327v11.605h7.411V29.519
		c0-6.425-1.387-11.369-8.896-11.369c-3.608,0-6.027,1.979-7.017,3.856h-0.1v-3.261H19.481"/>
</g>
<g id="Twitter">
	<path d="M50,9.493c-1.84,0.816-3.816,1.368-5.892,1.615c2.118-1.27,3.745-3.28,4.51-5.675c-1.981,1.176-4.177,2.029-6.514,2.49
		c-1.872-1.994-4.537-3.24-7.487-3.24c-5.666,0-10.258,4.593-10.258,10.258c0,0.804,0.09,1.587,0.265,2.338
		C16.099,16.851,8.54,12.767,3.481,6.561c-0.883,1.515-1.389,3.277-1.389,5.157c0,3.559,1.811,6.699,4.563,8.538
		c-1.681-0.053-3.263-0.515-4.646-1.283c0,0.043,0,0.086,0,0.129c0,4.97,3.536,9.116,8.228,10.058
		c-0.86,0.235-1.767,0.36-2.702,0.36c-0.661,0-1.304-0.064-1.93-0.184c1.306,4.075,5.094,7.041,9.583,7.124
		c-3.51,2.751-7.934,4.392-12.74,4.392c-0.828,0-1.645-0.049-2.447-0.144c4.54,2.911,9.932,4.609,15.725,4.609
		c18.868,0,29.186-15.631,29.186-29.187c0-0.445-0.01-0.887-0.029-1.327C46.885,13.357,48.625,11.55,50,9.493"/>
</g>
<g id="Mail">
	<path fill="none" stroke="#000000" stroke-width="5.2713" stroke-miterlimit="10" d="M44.563,41.929H5.437
		c-1.517,0-2.795-1.238-2.795-2.795V10.866c0-1.517,1.238-2.795,2.795-2.795h39.127c1.518,0,2.795,1.238,2.795,2.795v28.268
		C47.358,40.691,46.121,41.929,44.563,41.929L44.563,41.929z"/>
	<polyline fill="none" stroke="#000000" stroke-width="5.2713" stroke-miterlimit="10" points="3.213,8.527 25.177,25.922 
		46.438,8.702 	"/>
</g>
</svg>
