<?xml version="1.0" encoding="utf-8"?>
<!-- Generator: Adobe Illustrator 15.1.0, SVG Export Plug-In . SVG Version: 6.00 Build 0)  -->
<!DOCTYPE svg PUBLIC "-//W3C//DTD SVG 1.1//EN" "http://www.w3.org/Graphics/SVG/1.1/DTD/svg11.dtd">
<svg version="1.1" id="Ebene_1" xmlns="http://www.w3.org/2000/svg" xmlns:xlink="http://www.w3.org/1999/xlink" x="0px" y="0px"
	 width="25px" height="25px" viewBox="0 0 50 50" enable-background="new 0 0 25 25" xml:space="preserve">
<g id="Github">
	<path d="M25,0.617c-13.805,0-25,11.193-25,25c0,11.046,7.163,20.417,17.096,23.724c1.25,0.23,1.709-0.544,1.709-1.204
		c0-0.595-0.023-2.564-0.035-4.651c-6.954,1.512-8.422-2.951-8.422-2.951c-1.136-2.89-2.776-3.657-2.776-3.657
		c-2.268-1.552,0.172-1.52,0.172-1.52c2.51,0.177,3.832,2.576,3.832,2.576c2.229,3.821,5.849,2.717,7.275,2.076
		c0.225-1.613,0.872-2.718,1.587-3.342c-5.553-0.632-11.39-2.775-11.39-12.355c0-2.729,0.977-4.959,2.577-6.71
		c-0.26-0.629-1.116-3.171,0.243-6.617c0,0,2.098-0.67,6.876,2.563c1.994-0.555,4.134-0.833,6.257-0.841
		c2.126,0.008,4.265,0.286,6.265,0.841c4.771-3.234,6.867-2.563,6.867-2.563c1.361,3.444,0.506,5.988,0.245,6.617
		c1.603,1.751,2.574,3.981,2.574,6.71c0,9.602-5.849,11.717-11.416,12.333c0.897,0.777,1.696,2.3,1.696,4.631
		c0,3.345-0.029,6.037-0.029,6.859c0,0.666,0.449,1.446,1.716,1.199C42.846,46.028,50,36.66,50,25.617
		C50,11.811,38.807,0.617,25,0.617z M9.363,36.23c-0.055,0.125-0.25,0.162-0.429,0.076c-0.181-0.082-0.283-0.25-0.225-0.375
		c0.054-0.127,0.25-0.162,0.431-0.078C9.323,35.938,9.427,36.107,9.363,36.23z M10.593,37.328c-0.119,0.111-0.352,0.061-0.509-0.115
		c-0.165-0.175-0.195-0.407-0.074-0.521c0.123-0.109,0.349-0.058,0.512,0.117C10.686,36.985,10.718,37.217,10.593,37.328z
		 M11.437,38.73c-0.154,0.107-0.403,0.008-0.559-0.213c-0.154-0.223-0.154-0.489,0.003-0.598c0.156-0.105,0.402-0.009,0.56,0.211
		C11.593,38.357,11.593,38.624,11.437,38.73z M12.864,40.357c-0.137,0.152-0.43,0.111-0.643-0.096
		c-0.219-0.201-0.28-0.486-0.141-0.638c0.138-0.151,0.432-0.109,0.647,0.096C12.943,39.92,13.009,40.208,12.864,40.357z
		 M14.708,40.907c-0.061,0.196-0.342,0.284-0.625,0.202c-0.283-0.086-0.468-0.315-0.412-0.514c0.061-0.197,0.342-0.29,0.627-0.201
		C14.581,40.48,14.767,40.709,14.708,40.907z M16.806,41.14c0.007,0.207-0.232,0.378-0.53,0.382
		c-0.299,0.008-0.541-0.161-0.543-0.363c0-0.208,0.235-0.378,0.533-0.383C16.562,40.77,16.806,40.936,16.806,41.14z M18.867,41.061
		c0.036,0.202-0.171,0.408-0.466,0.463c-0.29,0.054-0.558-0.071-0.596-0.271c-0.036-0.205,0.175-0.413,0.466-0.466
		C18.565,40.736,18.83,40.855,18.867,41.061z"/>
</g>
</svg>
