<?xml version="1.0" encoding="utf-8"?>
<!-- Generator: Adobe Illustrator 15.1.0, SVG Export Plug-In . SVG Version: 6.00 Build 0)  -->
<!DOCTYPE svg PUBLIC "-//W3C//DTD SVG 1.1//EN" "http://www.w3.org/Graphics/SVG/1.1/DTD/svg11.dtd">
<svg version="1.1" id="Ebene_1" xmlns="http://www.w3.org/2000/svg" xmlns:xlink="http://www.w3.org/1999/xlink" x="0px" y="0px"
	 width="25px" height="25px" viewBox="0 0 50 50" enable-background="new 0 0 25 25" xml:space="preserve">
<g id="LinkedIn">
	<path d="M46.298,0H3.689C1.654,0,0,1.614,0,3.604v42.789C0,48.384,1.654,50,3.689,50h42.609C48.339,50,50,48.384,50,46.393V3.604
		C50,1.614,48.339,0,46.298,0"/>
	<path fill="#FFFFFF" d="M11.123,6.883c2.372,0,4.297,1.928,4.297,4.3c0,2.373-1.926,4.301-4.297,4.301
		c-2.376,0-4.3-1.928-4.3-4.301C6.822,8.811,8.746,6.883,11.123,6.883L11.123,6.883z M7.414,18.745h7.416v23.862H7.414V18.745z
		 M19.481,18.745v23.862h7.412V30.802c0-3.112,0.59-6.126,4.449-6.126c3.803,0,3.855,3.56,3.855,6.327v11.604h7.41V29.52
		c0-6.426-1.387-11.37-8.896-11.37c-3.608,0-6.026,1.979-7.017,3.856h-0.1v-3.261H19.481"/>
</g>
</svg>
