<?xml version="1.0" encoding="utf-8"?>
<!-- Generator: Adobe Illustrator 15.1.0, SVG Export Plug-In . SVG Version: 6.00 Build 0)  -->
<!DOCTYPE svg PUBLIC "-//W3C//DTD SVG 1.1//EN" "http://www.w3.org/Graphics/SVG/1.1/DTD/svg11.dtd">
<svg version="1.1" id="Ebene_1" xmlns="http://www.w3.org/2000/svg" xmlns:xlink="http://www.w3.org/1999/xlink" x="0px" y="0px"
	 width="25px" height="25px" viewBox="0 0 50 50" enable-background="new 0 0 25 25" xml:space="preserve">
<g id="Twitter">
	<path d="M50,9.493c-1.84,0.816-3.816,1.368-5.893,1.615c2.119-1.27,3.746-3.28,4.511-5.675c-1.981,1.176-4.177,2.029-6.515,2.49
		c-1.871-1.994-4.537-3.24-7.486-3.24c-5.666,0-10.258,4.593-10.258,10.258c0,0.804,0.09,1.587,0.265,2.338
		C16.099,16.851,8.54,12.767,3.481,6.561c-0.883,1.515-1.389,3.277-1.389,5.157c0,3.56,1.811,6.699,4.563,8.538
		c-1.681-0.053-3.263-0.515-4.646-1.283c0,0.043,0,0.086,0,0.129c0,4.97,3.536,9.116,8.228,10.058
		c-0.86,0.234-1.767,0.359-2.702,0.359c-0.661,0-1.304-0.063-1.93-0.184c1.306,4.075,5.094,7.041,9.583,7.124
		c-3.51,2.751-7.934,4.392-12.74,4.392c-0.828,0-1.645-0.049-2.447-0.144c4.54,2.911,9.932,4.608,15.725,4.608
		c18.868,0,29.186-15.631,29.186-29.187c0-0.445-0.01-0.887-0.029-1.327C46.885,13.357,48.625,11.55,50,9.493"/>
</g>
</svg>
