<?xml version="1.0" encoding="utf-8"?>
<!-- Generator: Adobe Illustrator 15.1.0, SVG Export Plug-In . SVG Version: 6.00 Build 0)  -->
<!DOCTYPE svg PUBLIC "-//W3C//DTD SVG 1.1//EN" "http://www.w3.org/Graphics/SVG/1.1/DTD/svg11.dtd">
<svg version="1.1" id="Ebene_1" xmlns="http://www.w3.org/2000/svg" xmlns:xlink="http://www.w3.org/1999/xlink" x="0px" y="0px"
	 width="25px" height="25px" viewBox="0 0 50 50" enable-background="new 0 0 25 25" xml:space="preserve">
<g id="Xing" transform="translate(-194.8708,-324.33481)">
	<path id="path19359" d="M202.469,334.207c-0.435,0-0.8,0.155-0.984,0.453c-0.19,0.308-0.16,0.703,0.041,1.105l4.875,8.441
		c0.008,0.015,0.008,0.026,0,0.04l-7.661,13.522c-0.201,0.398-0.191,0.798,0,1.106c0.182,0.296,0.506,0.49,0.942,0.49h7.212
		c1.078,0,1.597-0.728,1.966-1.392c0,0,7.493-13.253,7.784-13.769c-0.029-0.048-4.957-8.645-4.957-8.645
		c-0.359-0.642-0.902-1.354-2.008-1.354L202.469,334.207L202.469,334.207z"/>
	<path id="path19375" d="M232.763,324.335c-1.076,0-1.545,0.678-1.93,1.373c0,0-15.536,27.551-16.047,28.457
		c0.027,0.047,10.246,18.797,10.246,18.797c0.357,0.64,0.91,1.374,2.016,1.374h7.203c0.436,0,0.774-0.164,0.957-0.459
		c0.192-0.311,0.188-0.716-0.015-1.116l-10.167-18.574c-0.01-0.017-0.01-0.034,0-0.045l15.966-28.23
		c0.2-0.4,0.205-0.806,0.017-1.113c-0.186-0.299-0.525-0.461-0.959-0.461h-7.287V324.335z"/>
</g>
</svg>
